# xmcd
#
# Track frame offsets:
#	150
#	12641
#	29339
#	46902
#	61142
#	78513
#	92463
#	105261
#	119200
#	135031
#	148675
#	161111
#
# Disc length: 2332 seconds
#
# Revision: 0
# Processed by: cddbd v1.5.2PL0 Copyright (c) Steve Scherf et al.
# Submitted via: EZCDAudioConverter 7.0.4.1
#
DISCID=97091a0c
DTITLE=Mona G - Country Pärlor 1
DYEAR=2010
DGENRE=Country
TTITLE0=Wait A Minute
TTITLE1=Don't Darken My Door Step
TTITLE2=Together Again
TTITLE3=Rose Garden
TTITLE4=En Liten Bit Av Mitt Hjärta
TTITLE5=Help Me Make It Through The Night
TTITLE6=Undercover Lovers
TTITLE7=Top Of The World
TTITLE8=Hur Kan Du Tro Att Jag Ska Glömma
TTITLE9=Somebody Else Will
TTITLE10=I Don't Wanna Play House
TTITLE11=Some Days Are Diamonds
EXTD=
EXTT0=
EXTT1=
EXTT2=
EXTT3=
EXTT4=
EXTT5=
EXTT6=
EXTT7=
EXTT8=
EXTT9=
EXTT10=
EXTT11=
PLAYORDER=
